<svg width="1047" height="1204" viewBox="0 0 1047 1204" fill="none" xmlns="http://www.w3.org/2000/svg">
<path d="M947.791 636.411L458.078 1126.12" stroke="#F9A30D" stroke-miterlimit="10"/>
<path d="M831.193 500.723L687.031 644.885" stroke="#505050" stroke-opacity="0.1" stroke-miterlimit="10"/>
<path d="M958.409 943.825L699.234 1203" stroke="#4D4D4D" stroke-opacity="0.5" stroke-miterlimit="10"/>
<path d="M778.206 858.985L592.695 1044.5" stroke="#FF6600" stroke-miterlimit="10"/>
<path d="M951.563 380.976C959.001 380.976 965.031 374.946 965.031 367.507C965.031 360.069 959.001 354.039 951.563 354.039C944.124 354.039 938.094 360.069 938.094 367.507C938.094 374.946 944.124 380.976 951.563 380.976Z" fill="url(#paint0_linear_1603_16131)"/>
<path d="M951.563 390.574C964.302 390.574 974.629 380.247 974.629 367.508C974.629 354.769 964.302 344.441 951.563 344.441C938.823 344.441 928.496 354.769 928.496 367.508C928.496 380.247 938.823 390.574 951.563 390.574Z" stroke="url(#paint1_linear_1603_16131)" stroke-miterlimit="10"/>
<path d="M658.903 1031.27C658.903 1040.28 651.59 1047.59 642.584 1047.59C633.578 1047.59 626.266 1040.28 626.266 1031.27C626.266 1022.27 633.578 1014.95 642.584 1014.95C651.59 1014.95 658.903 1022.24 658.903 1031.27Z" stroke="url(#paint2_linear_1603_16131)" stroke-miterlimit="10"/>
<path d="M109.127 756.546C109.127 764.772 102.46 771.44 94.2336 771.44C86.0071 771.44 79.3398 764.772 79.3398 756.546C79.3398 748.32 86.0071 741.652 94.2336 741.652C102.46 741.652 109.127 748.32 109.127 756.546Z" fill="url(#paint3_linear_1603_16131)"/>
<path d="M854.969 330.435L878.949 301.857" stroke="url(#paint4_linear_1603_16131)" stroke-miterlimit="10"/>
<path d="M862.336 336.591L900 291.722" stroke="url(#paint5_linear_1603_16131)" stroke-miterlimit="10"/>
<path d="M854.969 360.33L893.655 314.197" stroke="url(#paint6_linear_1603_16131)" stroke-miterlimit="10"/>
<path d="M123.402 663.151L147.356 634.573" stroke="url(#paint7_linear_1603_16131)" stroke-miterlimit="10"/>
<path d="M130.742 669.334L168.407 624.438" stroke="url(#paint8_linear_1603_16131)" stroke-miterlimit="10"/>
<path d="M123.402 693.046L162.061 646.913" stroke="url(#paint9_linear_1603_16131)" stroke-miterlimit="10"/>
<path d="M922.824 823.083L953.418 786.575" stroke="url(#paint10_linear_1603_16131)" stroke-miterlimit="10"/>
<path d="M932.207 830.961L980.302 773.618" stroke="url(#paint11_linear_1603_16131)" stroke-miterlimit="10"/>
<path d="M922.824 861.259L972.237 802.356" stroke="url(#paint12_linear_1603_16131)" stroke-miterlimit="10"/>
<g opacity="0.5">
<path opacity="0.5" d="M873.194 185.771L837.277 225.802" stroke="url(#paint13_linear_1603_16131)" stroke-miterlimit="10"/>
<path opacity="0.5" d="M883.493 195.02L827.09 257.902" stroke="url(#paint14_linear_1603_16131)" stroke-miterlimit="10"/>
<path opacity="0.5" d="M915.86 179.696L857.898 244.298" stroke="url(#paint15_linear_1603_16131)" stroke-miterlimit="10"/>
</g>
<path d="M109.125 805.716L154.693 751.383" stroke="url(#paint16_linear_1603_16131)" stroke-miterlimit="10"/>
<path d="M123.105 817.438L194.697 732.108" stroke="url(#paint17_linear_1603_16131)" stroke-miterlimit="10"/>
<path d="M109.125 862.549L182.653 774.854" stroke="url(#paint18_linear_1603_16131)" stroke-miterlimit="10"/>
<path d="M194.698 687.884C199.643 687.884 203.651 683.875 203.651 678.931C203.651 673.987 199.643 669.979 194.698 669.979C189.754 669.979 185.746 673.987 185.746 678.931C185.746 683.875 189.754 687.884 194.698 687.884Z" fill="white"/>
<path d="M200.584 866.905C200.584 871.851 196.579 875.857 191.632 875.857C186.685 875.857 182.68 871.851 182.68 866.905C182.68 861.958 186.685 857.952 191.632 857.952C196.579 857.952 200.584 861.958 200.584 866.905Z" fill="white"/>
<path d="M153.702 432.728C153.702 435.013 151.847 436.868 149.562 436.868C147.277 436.868 145.422 435.013 145.422 432.728C145.422 430.443 147.277 428.588 149.562 428.588C151.847 428.615 153.702 430.443 153.702 432.728Z" fill="white"/>
<path d="M947.531 552.388C949.817 552.388 951.671 550.535 951.671 548.248C951.671 545.961 949.817 544.108 947.531 544.108C945.244 544.108 943.391 545.961 943.391 548.248C943.391 550.535 945.244 552.388 947.531 552.388Z" fill="white"/>
<path d="M988.581 920.887C988.581 923.172 986.726 925.027 984.441 925.027C982.156 925.027 980.301 923.172 980.301 920.887C980.301 918.602 982.156 916.747 984.441 916.747C986.726 916.773 988.581 918.602 988.581 920.887Z" fill="white"/>
<path d="M109.128 376.46C114.072 376.46 118.081 372.452 118.081 367.508C118.081 362.563 114.072 358.555 109.128 358.555C104.184 358.555 100.176 362.563 100.176 367.508C100.176 372.452 104.184 376.46 109.128 376.46Z" fill="white"/>
<path d="M352.881 962.799C352.881 967.746 348.876 971.751 343.929 971.751C338.982 971.751 334.977 967.746 334.977 962.799C334.977 957.852 338.982 953.847 343.929 953.847C348.876 953.847 352.881 957.852 352.881 962.799Z" fill="white"/>
<path d="M931.776 957.395C931.776 962.342 927.77 966.348 922.823 966.348C917.877 966.348 913.871 962.342 913.871 957.395C913.871 952.449 917.877 948.443 922.823 948.443C927.77 948.443 931.776 952.449 931.776 957.395Z" fill="white"/>
<path d="M8.98361 570.293C13.9279 570.293 17.9359 566.285 17.9359 561.341C17.9359 556.397 13.9279 552.389 8.98361 552.389C4.03936 552.389 0.03125 556.397 0.03125 561.341C0.03125 566.285 4.03936 570.293 8.98361 570.293Z" fill="white"/>
<path d="M262.176 971.939L286.909 981.994L298.039 943.55L262.176 971.939Z" fill="#FF7E3D"/>
<path d="M194.699 939.841L214.808 991.189L291.992 923.603L194.699 939.841Z" fill="url(#paint19_linear_1603_16131)"/>
<path d="M178.729 311.401L146.012 334.333L185.37 354.684L178.729 311.401Z" fill="#FF7E3D"/>
<path d="M1133 707.36C1408.04 707.36 1631 468.036 1631 172.815C1631 -122.407 1408.04 -361.731 1133 -361.731C857.962 -361.731 635 -122.407 635 172.815C635 468.036 857.962 707.36 1133 707.36Z" stroke="#FF6600" stroke-opacity="0.5" stroke-miterlimit="10"/>
<path d="M970.477 159.935L938.477 194.271" stroke="#F9A30D" stroke-miterlimit="10"/>
<path d="M970.477 194.271L938.477 159.935" stroke="#F9A30D" stroke-miterlimit="10"/>
<path d="M970.477 206.618L938.477 240.966" stroke="#FF6600" stroke-miterlimit="10"/>
<path d="M970.477 240.966L938.477 206.618" stroke="#FF6600" stroke-miterlimit="10"/>
<path d="M970.477 253.302L938.477 287.65" stroke="#3C312B" stroke-miterlimit="10"/>
<path d="M970.477 287.65L938.477 253.302" stroke="#3C312B" stroke-miterlimit="10"/>
<defs>
<linearGradient id="paint0_linear_1603_16131" x1="938.105" y1="367.518" x2="965.017" y2="367.518" gradientUnits="userSpaceOnUse">
<stop offset="0.0277" stop-color="#FFD24D"/>
<stop offset="0.7154" stop-color="#F6BE56"/>
<stop offset="1" stop-color="#F2B45A"/>
</linearGradient>
<linearGradient id="paint1_linear_1603_16131" x1="927.143" y1="367.519" x2="975.979" y2="367.519" gradientUnits="userSpaceOnUse">
<stop offset="0.0277" stop-color="#FFD24D"/>
<stop offset="0.7154" stop-color="#F6BE56"/>
<stop offset="1" stop-color="#F2B45A"/>
</linearGradient>
<linearGradient id="paint2_linear_1603_16131" x1="624.914" y1="1031.26" x2="660.234" y2="1031.26" gradientUnits="userSpaceOnUse">
<stop offset="0.0277" stop-color="#FFD24D"/>
<stop offset="0.7154" stop-color="#F6BE56"/>
<stop offset="1" stop-color="#F2B45A"/>
</linearGradient>
<linearGradient id="paint3_linear_1603_16131" x1="79.3603" y1="756.538" x2="109.126" y2="756.538" gradientUnits="userSpaceOnUse">
<stop offset="0.0277" stop-color="#FFD24D"/>
<stop offset="0.7154" stop-color="#F6BE56"/>
<stop offset="1" stop-color="#F2B45A"/>
</linearGradient>
<linearGradient id="paint4_linear_1603_16131" x1="852.883" y1="317.376" x2="881.045" y2="314.908" gradientUnits="userSpaceOnUse">
<stop offset="0.0277" stop-color="#FFD24D"/>
<stop offset="0.7154" stop-color="#F6BE56"/>
<stop offset="1" stop-color="#F2B45A"/>
</linearGradient>
<linearGradient id="paint5_linear_1603_16131" x1="859.586" y1="316.048" x2="902.749" y2="312.265" gradientUnits="userSpaceOnUse">
<stop offset="0.0277" stop-color="#FFD24D"/>
<stop offset="0.7154" stop-color="#F6BE56"/>
<stop offset="1" stop-color="#F2B45A"/>
</linearGradient>
<linearGradient id="paint6_linear_1603_16131" x1="852.176" y1="339.201" x2="896.47" y2="335.32" gradientUnits="userSpaceOnUse">
<stop offset="0.0277" stop-color="#FFD24D"/>
<stop offset="0.7154" stop-color="#F6BE56"/>
<stop offset="1" stop-color="#F2B45A"/>
</linearGradient>
<linearGradient id="paint7_linear_1603_16131" x1="122.36" y1="648.863" x2="148.386" y2="648.863" gradientUnits="userSpaceOnUse">
<stop offset="0.0277" stop-color="#FFD24D"/>
<stop offset="0.1674" stop-color="#EBC34D"/>
<stop offset="0.4544" stop-color="#B69D4D"/>
<stop offset="0.8604" stop-color="#625F4E"/>
<stop offset="1" stop-color="#44494E"/>
</linearGradient>
<linearGradient id="paint8_linear_1603_16131" x1="129.72" y1="646.877" x2="169.432" y2="646.877" gradientUnits="userSpaceOnUse">
<stop offset="0.0277" stop-color="#FFD24D"/>
<stop offset="0.1674" stop-color="#EBC34D"/>
<stop offset="0.4544" stop-color="#B69D4D"/>
<stop offset="0.8604" stop-color="#625F4E"/>
<stop offset="1" stop-color="#44494E"/>
</linearGradient>
<linearGradient id="paint9_linear_1603_16131" x1="122.36" y1="669.982" x2="163.104" y2="669.982" gradientUnits="userSpaceOnUse">
<stop offset="0.0277" stop-color="#FFD24D"/>
<stop offset="0.1674" stop-color="#EBC34D"/>
<stop offset="0.4544" stop-color="#B69D4D"/>
<stop offset="0.8604" stop-color="#625F4E"/>
<stop offset="1" stop-color="#44494E"/>
</linearGradient>
<linearGradient id="paint10_linear_1603_16131" x1="920.395" y1="806.384" x2="955.844" y2="803.277" gradientUnits="userSpaceOnUse">
<stop offset="0.0277" stop-color="#FFD24D"/>
<stop offset="0.7154" stop-color="#F6BE56"/>
<stop offset="1" stop-color="#F2B45A"/>
</linearGradient>
<linearGradient id="paint11_linear_1603_16131" x1="928.956" y1="804.688" x2="983.567" y2="799.903" gradientUnits="userSpaceOnUse">
<stop offset="0.0277" stop-color="#FFD24D"/>
<stop offset="0.7154" stop-color="#F6BE56"/>
<stop offset="1" stop-color="#F2B45A"/>
</linearGradient>
<linearGradient id="paint12_linear_1603_16131" x1="919.493" y1="834.265" x2="975.548" y2="829.352" gradientUnits="userSpaceOnUse">
<stop offset="0.0277" stop-color="#FFD24D"/>
<stop offset="0.7154" stop-color="#F6BE56"/>
<stop offset="1" stop-color="#F2B45A"/>
</linearGradient>
<linearGradient id="paint13_linear_1603_16131" x1="854.154" y1="185.861" x2="856.314" y2="225.727" gradientUnits="userSpaceOnUse">
<stop offset="0.0277" stop-color="#FFD24D"/>
<stop offset="0.7154" stop-color="#F6BE56"/>
<stop offset="1" stop-color="#F2B45A"/>
</linearGradient>
<linearGradient id="paint14_linear_1603_16131" x1="853.623" y1="195.699" x2="856.958" y2="257.247" gradientUnits="userSpaceOnUse">
<stop offset="0.0277" stop-color="#FFD24D"/>
<stop offset="0.7154" stop-color="#F6BE56"/>
<stop offset="1" stop-color="#F2B45A"/>
</linearGradient>
<linearGradient id="paint15_linear_1603_16131" x1="885.17" y1="180.414" x2="888.593" y2="243.596" gradientUnits="userSpaceOnUse">
<stop offset="0.0277" stop-color="#FFD24D"/>
<stop offset="0.7154" stop-color="#F6BE56"/>
<stop offset="1" stop-color="#F2B45A"/>
</linearGradient>
<linearGradient id="paint16_linear_1603_16131" x1="105.988" y1="780.822" x2="157.819" y2="776.28" gradientUnits="userSpaceOnUse">
<stop offset="0.0277" stop-color="#FFD24D"/>
<stop offset="0.1674" stop-color="#EBC34D"/>
<stop offset="0.4544" stop-color="#B69D4D"/>
<stop offset="0.8604" stop-color="#625F4E"/>
<stop offset="1" stop-color="#44494E"/>
</linearGradient>
<linearGradient id="paint17_linear_1603_16131" x1="118.73" y1="778.298" x2="199.078" y2="771.256" gradientUnits="userSpaceOnUse">
<stop offset="0.0277" stop-color="#FFD24D"/>
<stop offset="0.1674" stop-color="#EBC34D"/>
<stop offset="0.4544" stop-color="#B69D4D"/>
<stop offset="0.8604" stop-color="#625F4E"/>
<stop offset="1" stop-color="#44494E"/>
</linearGradient>
<linearGradient id="paint18_linear_1603_16131" x1="104.645" y1="822.314" x2="187.144" y2="815.085" gradientUnits="userSpaceOnUse">
<stop offset="0.0277" stop-color="#FFD24D"/>
<stop offset="0.1674" stop-color="#EBC34D"/>
<stop offset="0.4544" stop-color="#B69D4D"/>
<stop offset="0.8604" stop-color="#625F4E"/>
<stop offset="1" stop-color="#44494E"/>
</linearGradient>
<linearGradient id="paint19_linear_1603_16131" x1="194.695" y1="957.398" x2="291.992" y2="957.398" gradientUnits="userSpaceOnUse">
<stop offset="0.0277" stop-color="#FFD24D"/>
<stop offset="0.7154" stop-color="#FFBE56"/>
<stop offset="1" stop-color="#FFB45A"/>
</linearGradient>
</defs>
</svg>
