<svg width="222" height="200" viewBox="0 0 222 200" fill="none" xmlns="http://www.w3.org/2000/svg">
<g clip-path="url(#clip0_1603_15093)">
<path d="M112.5 49.7656H31.724C26.4679 49.7656 22.207 54.0265 22.207 59.2826V139.03C22.207 144.286 26.4679 148.547 31.724 148.547H112.5C117.756 148.547 122.017 144.286 122.017 139.03V59.2826C122.017 54.0265 117.756 49.7656 112.5 49.7656Z" fill="#F2F2F2"/>
<path d="M48.6864 51.7227C42.1827 51.7227 35.9453 54.3063 31.3465 58.9051C26.7477 63.5039 24.1641 69.7413 24.1641 76.245V139.03C24.1641 140.023 24.3596 141.006 24.7395 141.923C25.1194 142.84 25.6763 143.673 26.3783 144.375C27.0803 145.077 27.9137 145.634 28.8308 146.014C29.748 146.394 30.7311 146.59 31.7238 146.59H83.2771C93.0324 146.59 102.388 142.714 109.286 135.816C116.184 128.918 120.059 119.562 120.059 109.807V59.2824C120.059 57.2775 119.263 55.3546 117.845 53.9369C116.428 52.5191 114.505 51.7227 112.5 51.7227H48.6864Z" fill="white"/>
<path d="M209.841 17.1629H8.16835C8.07397 17.1629 7.98346 17.1254 7.91672 17.0587C7.84999 16.9919 7.8125 16.9014 7.8125 16.807C7.8125 16.7126 7.84999 16.6221 7.91672 16.5554C7.98346 16.4887 8.07397 16.4512 8.16835 16.4512H209.841C209.935 16.4512 210.026 16.4887 210.092 16.5554C210.159 16.6221 210.197 16.7126 210.197 16.807C210.197 16.9014 210.159 16.9919 210.092 17.0587C210.026 17.1254 209.935 17.1629 209.841 17.1629Z" fill="#E6E6E6"/>
<path d="M18.2593 6.47989C19.9213 6.47989 21.2686 5.10255 21.2686 3.40352C21.2686 1.70449 19.9213 0.327148 18.2593 0.327148C16.5973 0.327148 15.25 1.70449 15.25 3.40352C15.25 5.10255 16.5973 6.47989 18.2593 6.47989Z" fill="#E6E6E6"/>
<path d="M28.6538 6.47989C30.3158 6.47989 31.6631 5.10255 31.6631 3.40352C31.6631 1.70449 30.3158 0.327148 28.6538 0.327148C26.9918 0.327148 25.6445 1.70449 25.6445 3.40352C25.6445 5.10255 26.9918 6.47989 28.6538 6.47989Z" fill="#E6E6E6"/>
<path d="M39.0523 6.47989C40.7143 6.47989 42.0616 5.10255 42.0616 3.40352C42.0616 1.70449 40.7143 0.327148 39.0523 0.327148C37.3903 0.327148 36.043 1.70449 36.043 3.40352C36.043 5.10255 37.3903 6.47989 39.0523 6.47989Z" fill="#E6E6E6"/>
<path d="M50.9059 5.83511C50.8585 5.83518 50.8116 5.82574 50.7679 5.80735C50.7242 5.78897 50.6847 5.76201 50.6516 5.72808L48.621 3.65239C48.556 3.58592 48.5195 3.4966 48.5195 3.40358C48.5195 3.31055 48.556 3.22123 48.621 3.15476L50.6516 1.07924C50.6841 1.04531 50.7231 1.01816 50.7662 0.99937C50.8093 0.98058 50.8557 0.970521 50.9027 0.969772C50.9497 0.969023 50.9964 0.977602 51.0401 0.99501C51.0838 1.01242 51.1236 1.03831 51.1572 1.07119C51.1908 1.10407 51.2176 1.14329 51.2359 1.18658C51.2543 1.22986 51.2639 1.27636 51.2642 1.32338C51.2645 1.3704 51.2555 1.41702 51.2376 1.46053C51.2198 1.50404 51.1935 1.54358 51.1603 1.57688L49.3732 3.40357L51.1603 5.23044C51.2093 5.28052 51.2424 5.34393 51.2555 5.41274C51.2686 5.48155 51.2611 5.55269 51.2339 5.61726C51.2068 5.68182 51.1612 5.73693 51.1028 5.77568C51.0445 5.81444 50.976 5.83511 50.9059 5.83511Z" fill="#E6E6E6"/>
<path d="M54.3192 5.83511C54.2492 5.83511 54.1807 5.81443 54.1223 5.77568C54.064 5.73692 54.0184 5.68181 53.9912 5.61725C53.9641 5.55269 53.9566 5.48154 53.9697 5.41274C53.9827 5.34393 54.0159 5.28052 54.0648 5.23044L55.8517 3.40357L54.0648 1.57688C54.0316 1.54358 54.0054 1.50403 53.9875 1.46052C53.9697 1.41701 53.9607 1.3704 53.9609 1.32338C53.9612 1.27635 53.9708 1.22986 53.9892 1.18657C54.0076 1.14328 54.0343 1.10407 54.068 1.07119C54.1016 1.0383 54.1414 1.01241 54.1851 0.995004C54.2287 0.977597 54.2754 0.969023 54.3225 0.969772C54.3695 0.970521 54.4159 0.98058 54.459 0.99937C54.5021 1.01816 54.541 1.0453 54.5736 1.07924L56.6039 3.15475C56.669 3.22123 56.7054 3.31055 56.7054 3.40357C56.7054 3.4966 56.669 3.58592 56.6039 3.65239L54.5736 5.72808C54.5405 5.76201 54.5009 5.78897 54.4572 5.80735C54.4135 5.82574 54.3666 5.83518 54.3192 5.83511Z" fill="#E6E6E6"/>
<path d="M191.86 0.683594H188.084C187.982 0.683563 187.88 0.703702 187.786 0.742856C187.691 0.782009 187.605 0.839412 187.533 0.911785C187.461 0.984157 187.403 1.07008 187.364 1.16464C187.325 1.25921 187.305 1.36056 187.305 1.46291V5.24206C187.305 5.34441 187.325 5.44577 187.364 5.54033C187.403 5.6349 187.461 5.72082 187.533 5.79319C187.605 5.86557 187.691 5.92297 187.786 5.96212C187.88 6.00128 187.982 6.02141 188.084 6.02138H191.86C192.067 6.02158 192.265 5.93965 192.412 5.79356C192.559 5.64747 192.642 5.44914 192.642 5.24206V1.46291C192.642 1.25584 192.559 1.05751 192.412 0.911415C192.265 0.765324 192.067 0.683395 191.86 0.683594Z" fill="#E6E6E6"/>
<path d="M182.606 0.683594H178.83C178.728 0.683563 178.626 0.703702 178.532 0.742856C178.437 0.782009 178.351 0.839412 178.279 0.911785C178.207 0.984157 178.149 1.07008 178.11 1.16464C178.071 1.25921 178.051 1.36056 178.051 1.46291V5.24206C178.051 5.34441 178.071 5.44577 178.11 5.54033C178.149 5.6349 178.207 5.72082 178.279 5.79319C178.351 5.86557 178.437 5.92297 178.532 5.96212C178.626 6.00128 178.728 6.02141 178.83 6.02138H182.606C182.813 6.02158 183.011 5.93965 183.158 5.79356C183.305 5.64747 183.388 5.44914 183.389 5.24206V1.46291C183.388 1.25584 183.305 1.05751 183.158 0.911415C183.011 0.765324 182.813 0.683395 182.606 0.683594Z" fill="#E6E6E6"/>
<path d="M200.574 0.861328H196.799C196.696 0.861298 196.595 0.881437 196.501 0.92059C196.406 0.959744 196.32 1.01715 196.248 1.08952C196.175 1.16189 196.118 1.24781 196.079 1.34238C196.04 1.43694 196.02 1.5383 196.02 1.64065V5.4198C196.02 5.52215 196.04 5.6235 196.079 5.71806C196.118 5.81263 196.175 5.89856 196.248 5.97093C196.32 6.0433 196.406 6.1007 196.501 6.13986C196.595 6.17901 196.696 6.19914 196.799 6.19911H200.574C200.782 6.19931 200.98 6.11738 201.127 5.97129C201.274 5.8252 201.357 5.62687 201.357 5.4198V1.64065C201.357 1.43357 201.274 1.23524 201.127 1.08915C200.98 0.943058 200.782 0.861129 200.574 0.861328Z" fill="#E6E6E6"/>
<path d="M124.858 6.40534H100.304C99.4548 6.40534 98.6402 6.06792 98.0396 5.4673C97.439 4.86669 97.1016 4.05207 97.1016 3.20267C97.1016 2.35327 97.439 1.53866 98.0396 0.938044C98.6402 0.337426 99.4548 0 100.304 0H124.858C125.707 0 126.522 0.337426 127.123 0.938044C127.723 1.53866 128.061 2.35327 128.061 3.20267C128.061 4.05207 127.723 4.86669 127.123 5.4673C126.522 6.06792 125.707 6.40534 124.858 6.40534Z" fill="#E6E6E6"/>
<path d="M84.4335 112.947H29.6349C29.3214 112.947 29.0209 112.823 28.7992 112.601C28.5776 112.38 28.4531 112.079 28.4531 111.766C28.4531 111.452 28.5776 111.152 28.7992 110.93C29.0209 110.708 29.3214 110.584 29.6349 110.584H84.4335C84.747 110.584 85.0475 110.708 85.2692 110.93C85.4908 111.152 85.6153 111.452 85.6153 111.766C85.6153 112.079 85.4908 112.38 85.2692 112.601C85.0475 112.823 84.747 112.947 84.4335 112.947Z" fill="#F2F2F2"/>
<path d="M84.4335 79.2404H1.89473C1.73937 79.2407 1.58548 79.2103 1.44186 79.1511C1.29825 79.0918 1.16774 79.0048 1.05779 78.895C0.947836 78.7853 0.860611 78.6549 0.801095 78.5114C0.741579 78.3679 0.710938 78.2141 0.710938 78.0587C0.710938 77.9033 0.741579 77.7495 0.801095 77.606C0.860611 77.4625 0.947836 77.3321 1.05779 77.2224C1.16774 77.1126 1.29825 77.0256 1.44186 76.9663C1.58548 76.9071 1.73937 76.8767 1.89473 76.877H84.4335C84.7465 76.8775 85.0466 77.0022 85.2678 77.2238C85.4889 77.4454 85.6132 77.7456 85.6132 78.0587C85.6132 78.3718 85.4889 78.672 85.2678 78.8936C85.0466 79.1151 84.7465 79.2399 84.4335 79.2404Z" fill="#F2F2F2"/>
<path d="M84.4337 87.6787H1.89153C1.57823 87.6793 1.27795 87.8041 1.0566 88.0258C0.835256 88.2476 0.710938 88.5481 0.710938 88.8614C0.710938 89.1747 0.835256 89.4752 1.0566 89.6969C1.27795 89.9186 1.57823 90.0435 1.89153 90.044H84.4337C84.747 90.0435 85.0473 89.9186 85.2687 89.6969C85.49 89.4752 85.6143 89.1747 85.6143 88.8614C85.6143 88.5481 85.49 88.2476 85.2687 88.0258C85.0473 87.8041 84.747 87.6793 84.4337 87.6787Z" fill="#F2F2F2"/>
<path d="M84.4314 100.848H1.89267C1.57926 100.848 1.27868 100.723 1.05706 100.502C0.835441 100.28 0.710938 99.9795 0.710938 99.6661C0.710938 99.3527 0.835441 99.0521 1.05706 98.8305C1.27868 98.6089 1.57926 98.4844 1.89267 98.4844H84.4314C84.7448 98.4844 85.0454 98.6089 85.267 98.8305C85.4887 99.0521 85.6132 99.3527 85.6132 99.6661C85.6132 99.9795 85.4887 100.28 85.267 100.502C85.0454 100.723 84.7448 100.848 84.4314 100.848Z" fill="#F2F2F2"/>
<path d="M153.936 195.261L150.146 195.26L148.344 180.645L153.936 180.645L153.936 195.261Z" fill="#A0616A"/>
<path d="M154.067 199.214L142.414 199.214V199.066C142.414 197.863 142.892 196.71 143.743 195.859C144.593 195.009 145.747 194.531 146.95 194.531L149.078 192.916L153.05 194.531L154.067 194.531L154.067 199.214Z" fill="#3C312B"/>
<path d="M192.061 195.261L188.272 195.26L186.469 180.645L192.062 180.645L192.061 195.261Z" fill="#A0616A"/>
<path d="M192.196 199.214L180.543 199.214V199.066C180.543 197.863 181.021 196.71 181.871 195.859C182.722 195.009 183.876 194.531 185.079 194.531L187.207 192.916L191.179 194.531L192.196 194.531L192.196 199.214Z" fill="#3C312B"/>
<path d="M157.025 111.292C157.025 111.292 154.537 113.933 154.431 115.646C154.326 117.36 155.623 114.248 154.326 117.36C153.029 120.472 153.029 118.397 153.029 120.472C153.029 122.547 150.281 124.574 150.281 124.574L145.75 143.218L148.361 186.871H154.067C159.37 170.707 161.837 158.224 158.995 152.634L166.919 135.021C166.919 135.021 181.893 181.876 182.505 182.428C183.116 182.981 183.116 182.202 183.116 182.981C183.116 183.759 182.338 182.981 183.116 183.759L186.748 187.39L192.194 186.871C192.194 186.871 192.923 152.948 186.853 147.085C186.853 147.085 188.255 128.93 186.853 128.981C185.451 129.032 185.451 131.366 185.451 129.032C185.451 126.697 187.112 126.074 187.112 126.074L182.443 109.678L157.025 111.292Z" fill="#3C312B"/>
<path d="M186.428 75.1505L181.154 97.2312L182.399 105.444L183.894 115.284L178.727 114.949L170.731 114.43L155.885 113.469L154.586 69.8946L161.397 62.7775L162.614 59.3222L172.46 59.2617L174.816 63.411L180.873 65.1333C181.651 65.6273 182.383 66.1919 183.058 66.82C184.552 68.2043 185.876 69.9622 186.495 71.7628C186.682 72.2876 186.8 72.8341 186.848 73.3891L186.428 75.1505Z" fill="#E6E6E6"/>
<path d="M140.594 131.175C140.991 130.956 141.335 130.653 141.604 130.288C141.872 129.922 142.057 129.503 142.148 129.059C142.238 128.614 142.23 128.156 142.126 127.715C142.021 127.273 141.822 126.86 141.543 126.504L149.053 112.83L145.782 109.822L136.98 126.128C136.415 126.644 136.058 127.349 135.978 128.11C135.898 128.871 136.1 129.635 136.545 130.257C136.991 130.879 137.649 131.316 138.395 131.486C139.142 131.655 139.924 131.544 140.594 131.175Z" fill="#E6E6E6"/>
<path d="M158.913 67.2305L157.163 98.5934L148.728 118.303L143.238 125.583L143.862 122.284L140.078 120.391L139.723 120.215L146.988 92.021L147.657 81.0653C147.772 79.1799 148.278 77.339 149.141 75.659C150.004 73.979 151.207 72.4965 152.673 71.3052L156.875 67.8919L158.913 67.2305Z" fill="#E6E6E6"/>
<path d="M140.594 131.175C140.991 130.956 141.335 130.653 141.604 130.288C141.872 129.922 142.057 129.503 142.148 129.059C142.238 128.614 142.23 128.156 142.126 127.715C142.021 127.273 141.822 126.86 141.543 126.504L149.053 112.83L145.782 109.822L136.98 126.128C136.415 126.644 136.058 127.349 135.978 128.11C135.898 128.871 136.1 129.635 136.545 130.257C136.991 130.879 137.649 131.316 138.395 131.486C139.142 131.655 139.924 131.544 140.594 131.175Z" fill="#A0616A"/>
<path d="M158.913 67.2305L157.163 98.5934L148.728 118.303L143.238 125.583L143.862 122.284L140.078 120.391L139.723 120.215L146.988 92.021L147.657 81.0653C147.772 79.1799 148.278 77.339 149.141 75.659C150.004 73.979 151.207 72.4965 152.673 71.3052L156.875 67.8919L158.913 67.2305Z" fill="#E6E6E6"/>
<path d="M167.043 68.3125H86.2669C81.0109 68.3125 76.75 72.5734 76.75 77.8294V119.501C76.75 124.757 81.0109 129.018 86.2669 129.018H167.043C172.299 129.018 176.56 124.757 176.56 119.501V77.8294C176.56 72.5734 172.299 68.3125 167.043 68.3125Z" fill="white"/>
<path d="M167.043 129.373H86.2673C83.6498 129.37 81.1404 128.329 79.2895 126.478C77.4386 124.627 76.3975 122.118 76.3945 119.5V77.8289C76.3975 75.2113 77.4386 72.7019 79.2895 70.851C81.1404 69.0001 83.6498 67.959 86.2673 67.9561H167.043C169.661 67.9591 172.17 69.0002 174.021 70.8511C175.872 72.7019 176.913 75.2114 176.916 77.8289V119.5C176.913 122.118 175.872 124.627 174.021 126.478C172.17 128.329 169.661 129.37 167.043 129.373ZM86.2673 68.6678C83.8377 68.6678 81.5075 69.633 79.7895 71.351C78.0714 73.069 77.1062 75.3992 77.1062 77.8289V93.4044C77.1062 102.755 80.8208 111.723 87.4327 118.335C94.0446 124.947 103.012 128.661 112.363 128.661H167.043C169.473 128.661 171.803 127.696 173.521 125.978C175.239 124.26 176.204 121.93 176.204 119.5V77.8289C176.204 76.6258 175.967 75.4346 175.507 74.3231C175.047 73.2116 174.372 72.2017 173.521 71.351C172.67 70.5003 171.661 69.8255 170.549 69.3651C169.438 68.9047 168.246 68.6678 167.043 68.6678L86.2673 68.6678Z" fill="#3C312B"/>
<path d="M107.617 112.543H88.7572C88.0693 112.543 87.5117 113.101 87.5117 113.788C87.5117 114.476 88.0693 115.034 88.7572 115.034H107.617C108.305 115.034 108.863 114.476 108.863 113.788C108.863 113.101 108.305 112.543 107.617 112.543Z" fill="#FF6600"/>
<path d="M164.553 109.162H151.386C150.698 109.162 150.141 109.72 150.141 110.408V117.169C150.141 117.857 150.698 118.414 151.386 118.414H164.553C165.241 118.414 165.798 117.857 165.798 117.169V110.408C165.798 109.72 165.241 109.162 164.553 109.162Z" fill="#FF6600"/>
<path d="M93.9171 91.7257C97.4546 91.7257 100.322 88.858 100.322 85.3204C100.322 81.7828 97.4546 78.915 93.9171 78.915C90.3795 78.915 87.5117 81.7828 87.5117 85.3204C87.5117 88.858 90.3795 91.7257 93.9171 91.7257Z" fill="#FF6600"/>
<path d="M167.176 57.4275C171.618 57.4275 175.219 53.8266 175.219 49.3847C175.219 44.9427 171.618 41.3418 167.176 41.3418C162.734 41.3418 159.133 44.9427 159.133 49.3847C159.133 53.8266 162.734 57.4275 167.176 57.4275Z" fill="#A0616A"/>
<path d="M173.777 53.5421C173.84 54.0226 172.971 54.0734 172.775 53.6302C172.579 53.1871 172.833 52.6848 173.08 52.268L173.654 51.3005C173.762 51.1183 173.825 50.913 173.837 50.7015C173.85 50.4901 173.812 50.2787 173.726 50.0849C173.641 49.8912 173.51 49.7208 173.345 49.5878C173.18 49.4548 172.986 49.3632 172.778 49.3205C173.303 48.1398 172.734 46.6661 171.688 45.9075C170.642 45.1488 169.085 46.5683 167.816 46.8117C166.547 47.0551 165.531 46.0839 164.374 46.6597L165.069 45.0576L161.223 46.715L162.116 44.9127C161.145 44.9656 160.732 46.148 160.539 47.1009C160.332 48.1161 159.792 49.3853 158.688 49.1749C158.426 49.1166 158.186 48.9855 157.996 48.7967C157.805 48.608 157.672 48.3693 157.611 48.1081C156.758 44.8196 159.234 41.2246 162.517 40.6478C162.868 39.6787 163.52 38.8475 164.378 38.2758C165.235 37.7042 166.254 37.4223 167.283 37.4713C168.313 37.5203 169.3 37.8977 170.099 38.5483C170.899 39.1988 171.469 40.0882 171.726 41.0864L172.802 39.7687L173.012 41.6356C173.786 41.5534 174.516 42.0994 174.892 42.7803C175.268 43.4612 175.09 44.3403 175.451 45.0292C177.068 48.117 176.533 51.5931 174.036 53.9613" fill="#3C312B"/>
<path d="M201.986 193.832C202.152 193.84 202.315 193.796 202.455 193.708C202.595 193.619 202.704 193.49 202.768 193.337C202.832 193.184 202.847 193.015 202.812 192.854C202.777 192.692 202.693 192.545 202.571 192.432L202.516 192.212C202.523 192.195 202.531 192.177 202.538 192.16C202.705 191.766 202.984 191.43 203.341 191.195C203.697 190.96 204.116 190.835 204.543 190.837C204.97 190.838 205.388 190.966 205.743 191.204C206.098 191.442 206.375 191.78 206.538 192.174C207.193 193.75 208.026 195.329 208.231 196.995C208.321 197.731 208.283 198.478 208.118 199.201C209.655 195.849 210.453 192.206 210.458 188.518C210.458 187.593 210.407 186.668 210.304 185.749C210.219 184.995 210.101 184.246 209.95 183.503C209.126 179.471 207.358 175.692 204.79 172.476C203.547 171.797 202.542 170.755 201.91 169.488C201.681 169.032 201.519 168.546 201.43 168.044C201.57 168.063 201.958 165.927 201.853 165.796C202.048 165.5 202.398 165.352 202.611 165.063C203.672 163.624 205.134 163.876 205.898 165.831C207.528 166.654 207.544 168.019 206.544 169.331C205.907 170.166 205.82 171.296 205.261 172.19C205.319 172.264 205.378 172.335 205.436 172.409C206.486 173.76 207.402 175.21 208.169 176.739C207.982 175.026 208.205 173.293 208.819 171.683C209.441 170.182 210.607 168.918 211.634 167.621C211.906 167.272 212.274 167.012 212.694 166.873C213.113 166.734 213.564 166.722 213.99 166.84C214.416 166.957 214.798 167.198 215.087 167.533C215.376 167.867 215.559 168.279 215.614 168.718C215.616 168.737 215.618 168.756 215.62 168.775C215.467 168.861 215.318 168.952 215.172 169.049C214.989 169.172 214.846 169.347 214.764 169.552C214.682 169.756 214.663 169.981 214.711 170.197C214.759 170.412 214.871 170.608 215.032 170.759C215.193 170.91 215.396 171.009 215.614 171.042L215.636 171.046C215.582 171.596 215.486 172.14 215.349 172.675C216.666 177.77 213.822 179.625 209.761 179.709C209.672 179.755 209.584 179.801 209.495 179.844C210.266 182.029 210.749 184.305 210.934 186.615C211.038 187.978 211.032 189.347 210.915 190.709L210.922 190.66C211.216 189.146 212.024 187.78 213.209 186.792C214.969 185.347 217.455 184.814 219.354 183.652C219.556 183.523 219.79 183.453 220.03 183.453C220.27 183.452 220.505 183.52 220.707 183.649C220.91 183.777 221.071 183.961 221.173 184.178C221.274 184.396 221.311 184.638 221.28 184.875L221.272 184.926C220.989 185.041 220.713 185.174 220.447 185.324C220.294 185.41 220.145 185.501 219.999 185.598C219.815 185.72 219.673 185.895 219.591 186.1C219.509 186.305 219.49 186.53 219.538 186.745C219.586 186.961 219.697 187.157 219.858 187.308C220.019 187.459 220.222 187.557 220.44 187.591L220.463 187.594C220.479 187.597 220.493 187.599 220.509 187.601C220.025 188.756 219.346 189.819 218.502 190.743C217.679 195.19 214.141 195.612 210.357 194.317H210.354C209.939 196.121 209.338 197.878 208.559 199.558H202.147C202.124 199.486 202.103 199.413 202.082 199.342C202.676 199.379 203.272 199.343 203.857 199.236C203.381 198.652 202.905 198.064 202.429 197.48C202.419 197.469 202.409 197.457 202.4 197.445C202.158 197.147 201.915 196.85 201.673 196.551L201.673 196.551C201.66 195.635 201.766 194.721 201.986 193.832Z" fill="#F2F2F2"/>
<path d="M102.859 199.577C102.859 199.632 102.87 199.688 102.891 199.739C102.912 199.79 102.944 199.837 102.983 199.877C103.022 199.916 103.069 199.947 103.121 199.968C103.172 199.99 103.227 200 103.283 200H220.817C220.93 200 221.037 199.956 221.117 199.876C221.196 199.797 221.241 199.689 221.241 199.577C221.241 199.464 221.196 199.357 221.117 199.277C221.037 199.198 220.93 199.153 220.817 199.153H103.283C103.227 199.153 103.172 199.164 103.121 199.185C103.069 199.206 103.022 199.238 102.983 199.277C102.944 199.316 102.912 199.363 102.891 199.415C102.87 199.466 102.859 199.521 102.859 199.577Z" fill="#CCCCCC"/>
<path d="M170.605 129.272C170.993 129.039 171.327 128.724 171.582 128.349C171.837 127.974 172.007 127.549 172.082 127.101C172.156 126.654 172.132 126.196 172.012 125.759C171.892 125.322 171.679 124.916 171.386 124.569L178.407 110.637L175.031 107.748L166.813 124.356C166.267 124.892 165.936 125.609 165.883 126.373C165.83 127.136 166.058 127.892 166.526 128.498C166.993 129.104 167.666 129.517 168.418 129.66C169.17 129.803 169.948 129.665 170.605 129.272Z" fill="#A0616A"/>
<path d="M186.496 71.7631L186.848 73.3893L186.005 96.1212L182.4 105.445L178.728 114.949L178.276 116.12L173.048 123.589L173.553 120.269L169.703 118.511L169.344 118.351L170.732 114.43L173.924 105.42L175.304 101.519L175.603 89.9151L175.881 78.9442C175.929 77.0561 176.369 75.1985 177.172 73.4889C177.975 71.7794 179.124 70.2551 180.546 69.0124L183.058 66.8203C184.553 68.2046 185.877 69.9625 186.496 71.7631Z" fill="#E6E6E6"/>
<path d="M102.512 128.551L85.8306 128.195C83.7555 128.192 81.7663 127.366 80.2992 125.898C78.8322 124.431 78.007 122.441 78.0047 120.366L77.293 102.925C79.3413 117.144 87.2127 126.164 102.512 128.551Z" fill="#FF6600"/>
</g>
<defs>
<clipPath id="clip0_1603_15093">
<rect width="220.582" height="200" fill="white" transform="translate(0.710938)"/>
</clipPath>
</defs>
</svg>
