<svg width="250" height="200" viewBox="0 0 250 200" fill="none" xmlns="http://www.w3.org/2000/svg">
<g clip-path="url(#clip0_1603_15012)">
<path d="M142.284 176.935C140.569 174.533 138.247 172.776 135.328 172.118C132.782 171.545 130.165 171.642 127.577 171.662L94.8592 171.915C92.0571 171.936 89.3705 174.364 89.5006 177.273C89.6298 180.158 91.8556 182.655 94.8592 182.632C104.443 182.558 114.028 182.484 123.612 182.41C125.871 182.393 128.132 182.352 130.392 182.359C130.899 182.361 131.404 182.388 131.911 182.393C132.034 182.395 132.123 182.394 132.185 182.391C132.201 182.396 132.214 182.4 132.235 182.406C132.499 182.478 132.77 182.528 133.036 182.597C132.943 182.6 133.209 182.766 133.342 182.822C133.361 182.858 133.4 182.922 133.465 183.021C133.556 183.192 133.826 183.711 133.837 183.695C134.242 184.719 134.576 185.77 134.837 186.84C135.46 189.201 135.597 189.694 135.686 191.908C135.8 194.705 138.07 197.4 141.045 197.267C143.851 197.141 146.525 194.908 146.404 191.908C146.199 186.853 145.312 181.174 142.284 176.935Z" fill="#E6E6E6"/>
<path d="M96.782 189.027C96.1674 185.303 95.5647 181.577 94.9382 177.855C94.3025 174.079 93.0043 170.622 90.0659 168.143C89.2808 167.481 88.4668 166.863 87.6493 166.247C87.3618 166.03 87.0748 165.813 86.7908 165.592C86.7738 165.579 86.763 165.57 86.7482 165.559C86.717 165.532 86.6795 165.5 86.6292 165.458C85.4045 164.421 84.2212 163.339 83.094 162.188C82.093 161.166 81.1358 160.1 80.2222 158.991C79.9939 158.714 79.7686 158.435 79.5462 158.153C79.5079 158.104 79.3019 157.838 79.1661 157.664C79.0399 157.49 78.8092 157.176 78.7704 157.121C78.5106 156.754 78.2553 156.383 78.0048 156.009C76.298 153.452 74.8202 150.749 73.5883 147.932C73.4661 147.653 73.3469 147.372 73.2305 147.089C73.1993 147.003 73.1589 146.892 73.1052 146.745C72.857 146.062 72.6092 145.38 72.3823 144.689C71.9 143.222 71.4854 141.733 71.1385 140.223C70.9669 139.477 70.8125 138.727 70.6752 137.974C70.6044 137.587 70.5381 137.198 70.4765 136.809C70.4663 136.745 70.4061 136.325 70.3707 136.088C70.3445 135.849 70.2958 135.427 70.2892 135.362C70.25 134.97 70.2152 134.578 70.1848 134.185C70.1162 133.3 70.0699 132.415 70.0458 131.528C70.0046 129.951 70.0328 128.375 70.1305 126.798C70.1861 125.912 70.2652 125.029 70.3627 124.147C70.3686 124.093 70.3731 124.05 70.3774 124.011C70.3833 123.972 70.3902 123.927 70.3983 123.871C70.4704 123.384 70.5463 122.897 70.6312 122.412C70.9526 120.57 71.3706 118.747 71.8835 116.949C72.1264 116.098 72.3901 115.255 72.6748 114.418C72.8017 114.047 72.9327 113.677 73.0676 113.309C73.0588 113.332 73.4635 112.299 73.4689 112.264C75.0748 108.47 77.7014 105.011 77.705 100.701C77.7075 97.7824 75.2387 94.987 72.3465 95.1219C70.9045 95.1762 69.5399 95.7881 68.5403 96.8288C67.5407 97.8695 66.9841 99.2576 66.9879 100.701C66.9879 100.766 66.9876 100.822 66.9874 100.876C66.9604 100.967 66.9379 101.043 66.9176 101.11C66.6044 101.791 66.2208 102.437 65.877 103.101C64.9358 104.917 64.1323 106.793 63.3691 108.697C62.1197 111.796 61.1634 115.006 60.5126 118.285C59.0981 125.467 58.9883 132.846 60.1885 140.067C62.2661 152.731 69.1177 164.854 78.643 173.002C79.4697 173.709 80.3164 174.392 81.1712 175.062C81.5249 175.339 81.8816 175.611 82.24 175.881C82.4095 176.009 83.1113 176.562 82.8026 176.294C83.4665 176.861 83.746 177.146 83.9166 177.563C83.9412 177.66 83.9749 177.79 84.0206 177.969C84.1408 178.439 84.2549 178.909 84.3497 179.386C85.1788 183.556 85.7551 187.796 86.4477 191.994C86.9237 194.877 90.474 196.754 93.0394 195.89C96.0255 194.884 97.292 192.117 96.782 189.027Z" fill="#E6E6E6"/>
<path d="M142.824 199.843C140.574 199.849 138.413 198.962 136.816 197.377C135.218 195.791 134.315 193.637 134.304 191.387V185.274C127.904 185.991 105.99 185.825 99.7079 184.815V191.142C99.6911 193.391 98.786 195.542 97.19 197.126C95.594 198.71 93.4365 199.599 91.1878 199.599C88.9391 199.599 86.7816 198.71 85.1856 197.126C83.5896 195.542 82.6845 193.391 82.6676 191.142V178.72C74.1595 173.993 67.0667 167.082 62.1213 158.699C57.176 150.316 54.5572 140.765 54.5352 131.033C54.5352 114.344 62.0984 98.7759 75.2858 88.3203C83.86 81.499 94.2777 77.3968 105.201 76.5403C106.683 76.4241 108.175 76.3652 109.635 76.3652C114.776 76.3652 137.974 77.1595 143.795 78.834L157.066 65.6648C157.262 65.4685 157.511 65.3349 157.782 65.2808C158.053 65.2267 158.335 65.2547 158.59 65.3611C158.848 65.4635 159.068 65.6413 159.223 65.8712C159.377 66.1011 159.458 66.3724 159.456 66.6494V68.7432L162.04 66.1838C162.235 65.9874 162.484 65.8535 162.755 65.7993C163.026 65.7451 163.307 65.7731 163.563 65.8797C163.82 65.982 164.041 66.1599 164.196 66.3899C164.35 66.6199 164.432 66.8913 164.429 67.1684V90.5669C171.089 96.5706 176.165 104.124 179.207 112.559C182.249 120.993 183.163 130.048 181.869 138.92C180.575 147.793 177.112 156.209 171.788 163.423C166.463 170.637 159.441 176.427 151.344 180.278V191.387C151.333 193.637 150.43 195.791 148.833 197.377C147.236 198.962 145.075 199.849 142.824 199.843ZM134.974 184.515V191.387C134.991 193.458 135.825 195.438 137.296 196.896C138.766 198.355 140.753 199.173 142.824 199.173C144.895 199.173 146.882 198.355 148.353 196.896C149.823 195.438 150.658 193.458 150.674 191.387V179.855L150.866 179.764C159.951 175.453 167.664 168.708 173.148 160.279C180.135 149.522 183.041 136.619 181.34 123.905C179.638 111.191 173.441 99.5062 163.871 90.9655L163.759 90.8656V67.1684C163.762 67.0244 163.72 66.8832 163.64 66.7637C163.559 66.6442 163.444 66.5522 163.31 66.5001C163.177 66.443 163.029 66.4276 162.887 66.4559C162.744 66.4842 162.614 66.5548 162.513 66.6585L158.786 70.3494V66.6494C158.788 66.5054 158.747 66.3641 158.666 66.2446C158.586 66.1251 158.471 66.0331 158.337 65.981C158.203 65.9241 158.055 65.9088 157.913 65.9373C157.77 65.9658 157.639 66.0367 157.538 66.1406L143.982 79.5918L143.789 79.5315C138.378 77.838 114.815 77.035 109.635 77.035C108.192 77.035 106.718 77.0932 105.253 77.2082C94.463 78.0541 84.1719 82.1066 75.702 88.845C62.6758 99.1729 55.2049 114.55 55.2049 131.033C55.2272 140.679 57.832 150.144 62.7488 158.444C67.6656 166.744 74.7149 173.575 83.1646 178.23L83.3374 178.325V191.142C83.3547 193.213 84.1894 195.193 85.6597 196.651C87.1301 198.109 89.117 198.927 91.1878 198.927C93.2585 198.927 95.2455 198.109 96.7158 196.651C98.1862 195.193 99.0209 193.213 99.0381 191.142V184.013L99.4349 184.088C105.08 185.15 128.851 185.318 134.595 184.564L134.974 184.515Z" fill="#3C312B"/>
<path d="M97.4217 39.8935L60.3337 51.0393C59.154 51.3952 58.1639 52.2049 57.5808 53.2903C56.9978 54.3758 56.8694 55.6484 57.224 56.8284C57.5786 58.0085 58.3872 58.9995 59.472 59.5838C60.5568 60.1681 61.8292 60.2978 63.0097 59.9445L95.4657 50.1886L96.1456 49.9843C96.2832 46.4807 97.2337 43.057 98.922 39.9839C98.7102 39.8886 98.4837 39.8297 98.2522 39.8097C97.9726 39.7827 97.6903 39.8111 97.4217 39.8935Z" fill="#FF6600"/>
<path d="M62.3683 62.3209C61.876 62.3197 61.3965 62.1638 60.9976 61.8753C60.5987 61.5867 60.3005 61.1801 60.1453 60.7129L57.8261 53.7146C57.7292 53.4224 57.6909 53.1139 57.7132 52.8068C57.7356 52.4998 57.8182 52.2001 57.9564 51.925C58.0946 51.6498 58.2856 51.4046 58.5186 51.2033C58.7516 51.002 59.0219 50.8486 59.3142 50.7518L89.5 40.748C89.7922 40.6511 90.1007 40.6127 90.4077 40.6351C90.7148 40.6574 91.0144 40.74 91.2896 40.8782C91.5647 41.0163 91.8099 41.2073 92.0112 41.4402C92.2125 41.6731 92.366 41.9434 92.4629 42.2356L94.7821 49.2339C94.975 49.8095 94.9363 50.4376 94.6742 50.9852C94.4121 51.5327 93.9471 51.9568 93.3777 52.1675C93.3499 52.1779 93.3217 52.1878 93.2933 52.1971L63.1081 62.2005C62.8696 62.2801 62.6198 62.3207 62.3683 62.3209Z" fill="#3C312B"/>
<path d="M118.901 27.4648C112.808 27.4672 106.956 29.8401 102.582 34.0813C98.2085 38.3225 95.6568 44.0991 95.467 50.1885C95.4603 50.4263 95.457 50.6674 95.457 50.9086C95.457 55.5453 96.832 60.0779 99.408 63.9332C101.984 67.7885 105.645 70.7933 109.929 72.5677C114.213 74.3421 118.927 74.8064 123.474 73.9018C128.022 72.9972 132.199 70.7644 135.478 67.4858C138.757 64.2071 140.989 60.0298 141.894 55.4822C142.799 50.9346 142.334 46.2208 140.56 41.937C138.785 37.6533 135.781 33.9919 131.925 31.4158C128.07 28.8398 123.537 27.4648 118.901 27.4648ZM118.901 73.6824C112.863 73.6761 107.074 71.2747 102.804 67.0052C98.5345 62.7356 96.1331 56.9466 96.1268 50.9086C96.1268 50.5971 96.1335 50.289 96.147 49.9842C96.3283 45.5231 97.817 41.2138 100.428 37.592C103.039 33.9702 106.657 31.1958 110.832 29.6137C115.007 28.0316 119.555 27.7117 123.91 28.6936C128.266 29.6756 132.236 31.9162 135.328 35.1368C138.421 38.3574 140.498 42.4159 141.302 46.8076C142.106 51.1993 141.602 55.7306 139.851 59.8379C138.101 63.9451 135.182 67.4473 131.457 69.9088C127.732 72.3703 123.365 73.6826 118.901 73.6824Z" fill="#3C312B"/>
<path d="M138.66 50.909C138.66 56.1496 136.578 61.1756 132.873 64.8812C129.167 68.5869 124.141 70.6687 118.9 70.6687C113.66 70.6687 108.634 68.5869 104.928 64.8812C101.222 61.1756 99.1406 56.1496 99.1406 50.909C99.1406 50.2828 99.1707 49.6665 99.2276 49.057C99.7038 43.9993 102.11 39.3192 105.946 35.9887C109.782 32.6581 114.753 30.9329 119.827 31.1712C124.902 31.4095 129.69 33.5931 133.197 37.2686C136.703 40.944 138.66 45.829 138.66 50.909Z" fill="#E6E6E6"/>
<path d="M124.785 52.2222C124.306 51.5925 123.676 51.0937 122.953 50.772C122.062 50.3963 121.141 50.0939 120.2 49.8678V44.4891C121.646 44.7071 123.002 45.3255 124.115 46.2742L125.207 43.9466C124.579 43.3871 123.858 42.9417 123.077 42.6304C122.211 42.2797 121.302 42.0466 120.374 41.9371V39.2109H117.846V41.9639C116.869 42.0736 115.927 42.3898 115.083 42.8916C114.32 43.3433 113.677 43.973 113.21 44.7269C112.765 45.4627 112.534 46.3084 112.544 47.1684C112.501 48.1004 112.771 49.0201 113.311 49.7807C113.808 50.4392 114.465 50.9602 115.22 51.2945C116.126 51.6813 117.062 51.9916 118.02 52.2222V57.3765C116.313 57.2478 114.688 56.599 113.361 55.5177L112.27 57.8487C113.011 58.4618 113.854 58.9401 114.761 59.262C115.755 59.6176 116.793 59.834 117.846 59.905V62.6078H120.374V59.8548C121.779 59.7013 123.096 59.0974 124.129 58.1334C124.583 57.6972 124.943 57.1713 125.184 56.589C125.425 56.0068 125.542 55.3808 125.529 54.7508C125.571 53.8485 125.309 52.9581 124.785 52.2222ZM118.02 49.2984C117.404 49.1116 116.831 48.8043 116.335 48.3942C116.139 48.2193 115.983 48.0031 115.88 47.761C115.777 47.519 115.729 47.2571 115.739 46.9943C115.721 46.3977 115.94 45.8184 116.349 45.3833C116.802 44.9269 117.386 44.6236 118.02 44.5159V49.2984ZM121.788 56.4253C121.36 56.8635 120.804 57.1534 120.2 57.2525V52.8183C120.777 52.9732 121.317 53.2432 121.788 53.6121C121.966 53.7643 122.108 53.9548 122.202 54.1693C122.297 54.3839 122.341 54.617 122.334 54.8512C122.357 55.426 122.162 55.9883 121.788 56.4253Z" fill="#FF6600"/>
<path d="M63.4448 90.6845C62.9271 90.6837 62.4241 90.512 62.0139 90.1962C61.6036 89.8804 61.309 89.438 61.1758 88.9377L59.9132 84.1585C59.7551 83.5578 59.8418 82.919 60.1541 82.3821C60.4665 81.8452 60.979 81.4541 61.5794 81.2946L101.414 70.7685C102.015 70.6117 102.654 70.6993 103.19 71.0122C103.727 71.3251 104.118 71.8378 104.278 72.4382L105.347 76.4872L105.147 76.5027C94.9306 77.2971 85.1556 81.0011 76.9784 87.1766L76.9203 87.2048L64.0396 90.6074C63.8455 90.6586 63.6456 90.6845 63.4448 90.6845Z" fill="#3C312B"/>
<path d="M56.8469 114.291C52.1741 113.6 47.7051 111.911 43.7445 109.337C41.7824 108.062 39.9659 106.577 38.3277 104.906C36.7108 103.257 35.164 101.383 34.3631 99.1864C33.5926 97.1544 33.6323 94.904 34.474 92.9004C35.3043 90.9091 36.8904 89.3282 38.8844 88.5045C40.8904 87.7045 43.314 87.619 45.2662 88.4951C46.1965 88.9028 47.0016 89.5508 47.5987 90.3725C47.8762 90.7513 48.0817 91.178 48.205 91.6312C48.3193 92.0418 48.3297 92.4745 48.2352 92.8901C48.1207 93.3051 47.9189 93.6908 47.6431 94.0214C47.3674 94.352 47.0241 94.6198 46.6364 94.8068C45.7831 95.2446 44.8585 95.5266 43.9062 95.6395C42.9483 95.7701 41.5723 95.8889 40.8022 95.12C40.6437 94.9679 40.519 94.7841 40.4363 94.5806C40.3784 94.4247 40.3586 94.2573 40.3786 94.0922C40.3673 94.165 40.425 93.9341 40.4217 93.9433C40.4096 93.9774 40.3568 94.0606 40.4318 93.9328C40.4552 93.8906 40.4813 93.85 40.5099 93.8112C40.4844 93.8441 40.4285 93.899 40.5283 93.8048C40.6108 93.7145 40.7169 93.649 40.8345 93.6158C40.8809 93.6023 40.9279 93.5915 40.9744 93.5788C41.0925 93.5465 40.8566 93.5806 40.9775 93.5767C41.0241 93.5752 41.0714 93.5764 41.1178 93.5743C41.2364 93.5689 41.0009 93.5419 41.1145 93.5705C41.1586 93.5816 41.2023 93.5924 41.2458 93.6061C41.3402 93.6359 41.1789 93.5368 41.2429 93.611C41.3179 93.6978 41.1641 93.5264 41.2494 93.6106C41.2918 93.6522 41.3318 93.6963 41.3692 93.7426C41.5171 93.8886 41.7165 93.9705 41.9243 93.9705C42.1321 93.9705 42.3315 93.8886 42.4794 93.7426C42.6223 93.5931 42.702 93.3943 42.702 93.1875C42.702 92.9807 42.6223 92.7819 42.4794 92.6324C41.7053 91.6728 40.1762 91.9099 39.3931 92.7209C38.3944 93.7553 38.7899 95.3946 39.7614 96.2971C40.8611 97.3188 42.4187 97.3898 43.8333 97.2185C45.0289 97.104 46.1939 96.7747 47.2726 96.2466C48.3443 95.7199 49.1826 94.8144 49.625 93.7052C49.8247 93.1133 49.8965 92.4857 49.8355 91.8639C49.7745 91.2422 49.5821 90.6404 49.2712 90.0986C48.0222 87.7505 45.4359 86.5466 42.8796 86.3381C41.5635 86.235 40.24 86.3939 38.9857 86.8057C37.7314 87.2175 36.5712 87.8739 35.5723 88.737C33.6469 90.4704 32.4613 92.8774 32.2606 95.4603C32.0375 98.1383 33.0765 100.739 34.5913 102.9C36.1772 105.096 38.0697 107.053 40.2109 108.712C44.3971 112.054 49.3075 114.37 54.5491 115.474C55.1726 115.603 55.7994 115.713 56.4295 115.805C56.6301 115.853 56.8416 115.824 57.021 115.722C57.2004 115.62 57.3342 115.454 57.3952 115.256C57.4491 115.056 57.4217 114.842 57.3191 114.661C57.2165 114.48 57.0469 114.347 56.8469 114.291Z" fill="#3C312B"/>
<path d="M131.663 80.1714C124.817 80.0748 117.992 80.2485 111.189 80.6926C108.863 80.8445 106.852 81.6664 106.852 83.0478C106.852 84.2027 108.847 85.5557 111.189 85.4028C117.989 84.9588 124.813 84.7851 131.663 84.8816C137.247 84.9604 137.244 80.2502 131.663 80.1714Z" fill="#CCCCCC"/>
<path d="M121.542 84.6487C120.803 84.6487 103.422 84.6211 103.422 82.2203C103.422 79.8196 120.803 79.792 121.542 79.792C122.282 79.792 139.663 79.8196 139.663 82.2203C139.663 84.6211 122.282 84.6487 121.542 84.6487ZM104.102 82.2203C104.577 82.9481 110.966 83.9789 121.542 83.9789C132.119 83.9789 138.508 82.9481 138.983 82.2203C138.508 81.4925 132.119 80.4618 121.542 80.4618C110.966 80.4618 104.577 81.4925 104.102 82.2203Z" fill="#3C312B"/>
<path d="M176.686 147.762C180.533 147.655 185.322 147.522 189.011 144.827C190.109 143.992 191.012 142.926 191.655 141.705C192.299 140.485 192.667 139.138 192.735 137.759C192.811 135.631 192.042 133.773 190.57 132.53C188.643 130.902 185.83 130.52 182.798 131.411L185.939 108.454L183.633 108.138L179.94 135.127L181.866 134.243C184.098 133.219 187.163 132.698 189.068 134.308C189.535 134.728 189.9 135.251 190.132 135.836C190.365 136.42 190.46 137.05 190.409 137.678C190.353 138.703 190.076 139.705 189.598 140.614C189.12 141.524 188.451 142.319 187.638 142.947C184.767 145.044 180.95 145.315 176.621 145.436L176.686 147.762Z" fill="#3C312B"/>
<path d="M170.31 110.434H157.773V112.761H170.31V110.434Z" fill="#3C312B"/>
<path d="M69.1171 101.39C68.5591 101.389 68.0199 101.188 67.5962 100.825C67.1725 100.462 66.892 99.9596 66.8048 99.4085L66.0396 94.525C65.9441 93.9108 66.096 93.2838 66.4622 92.7815C66.8284 92.2792 67.3789 91.9427 67.9929 91.8459L108.695 85.4683C109.309 85.3728 109.936 85.5248 110.438 85.8909C110.941 86.2571 111.277 86.8076 111.374 87.4215L112.139 92.3052C112.235 92.9194 112.083 93.5464 111.717 94.0487C111.35 94.5509 110.8 94.8874 110.186 94.9843L69.4839 101.362C69.3625 101.381 69.2399 101.39 69.1171 101.39Z" fill="#3C312B"/>
<path d="M52.2718 44.1599C61.7051 44.1599 69.3522 36.5127 69.3522 27.0794C69.3522 17.6462 61.7051 9.99902 52.2718 9.99902C42.8386 9.99902 35.1914 17.6462 35.1914 27.0794C35.1914 36.5127 42.8386 44.1599 52.2718 44.1599Z" fill="#FF6600"/>
<path d="M61.9428 31.4987C62.4887 31.3077 62.9874 31.0021 63.4053 30.6024C63.6818 30.3174 63.8927 29.9754 64.0231 29.6004C64.1536 29.2253 64.2005 28.8263 64.1605 28.4312C64.1372 28.1496 64.0492 27.8772 63.9033 27.6353C63.7573 27.3933 63.5574 27.1884 63.3191 27.0366C62.701 26.6564 61.8842 26.6708 61.0595 27.0531L60.9643 20.3857L60.2946 20.3953L60.4065 28.2334L60.9163 27.8991C61.5075 27.5119 62.357 27.2312 62.9682 27.6072C63.1193 27.7067 63.2455 27.8397 63.3369 27.996C63.4282 28.1522 63.4823 28.3274 63.495 28.5079C63.5232 28.8022 63.4876 29.0992 63.3907 29.3785C63.2938 29.6579 63.1379 29.9131 62.9336 30.1268C62.2075 30.8472 61.1328 31.0886 59.9062 31.3094L60.0249 31.9685C60.677 31.8695 61.3188 31.7123 61.9428 31.4987Z" fill="#3C312B"/>
<path d="M67.8637 19.9178L64.2969 20.458L64.3972 21.1202L67.964 20.58L67.8637 19.9178Z" fill="#3C312B"/>
<path d="M56.6059 21.6219L53.0391 22.1621L53.1393 22.8243L56.7062 22.2841L56.6059 21.6219Z" fill="#3C312B"/>
<path d="M63.5602 101.092C62.946 101.09 62.3467 100.902 61.8421 100.552C61.3374 100.202 60.9515 99.7059 60.7355 99.1308L48.959 67.5927C47.5196 63.7248 47.6733 59.4438 49.3864 55.689C51.0995 51.9342 54.232 49.0123 58.0967 47.5643L67.6724 43.9888C68.0427 43.8496 68.4368 43.785 68.8321 43.7987C69.2275 43.8124 69.6162 43.9042 69.9759 44.0687C70.3348 44.2291 70.6581 44.4593 70.9269 44.746C71.1958 45.0327 71.4048 45.3701 71.5417 45.7385L93.3566 86.9271C93.4982 87.2985 93.565 87.6942 93.5531 88.0915C93.5412 88.4889 93.4509 88.8799 93.2872 89.2422C93.1236 89.6044 92.89 89.9308 92.5997 90.2024C92.3095 90.474 91.9684 90.6855 91.5961 90.8248L64.6136 100.9C64.2768 101.027 63.92 101.091 63.5602 101.092Z" fill="#3C312B"/>
<path d="M64.7695 45.0728L86.4144 74.0177L71.7683 45.3766C71.6473 45.0425 71.4617 44.7354 71.222 44.4729C70.9824 44.2105 70.6934 43.9979 70.3715 43.8471C70.0496 43.6964 69.7012 43.6106 69.3462 43.5946C68.9912 43.5785 68.6364 43.6326 68.3023 43.7537L64.7695 45.0728Z" fill="#E6E6E6"/>
<path d="M99.0396 67.0549L60.3926 64.5654C59.7834 64.5262 59.1879 64.3674 58.6401 64.098C58.0923 63.8286 57.603 63.454 57.2 62.9955C56.797 62.537 56.4882 62.0036 56.2913 61.4258C56.0945 60.848 56.0133 60.2371 56.0526 59.6279C56.0918 59.0187 56.2507 58.4233 56.52 57.8755C56.7894 57.3277 57.164 56.8383 57.6225 56.4353C58.081 56.0323 58.6144 55.7236 59.1922 55.5267C59.77 55.3298 60.3809 55.2487 60.9901 55.2879L99.6372 57.7772C99.9225 57.7955 100.201 57.8699 100.458 57.996C100.714 58.1222 100.944 58.2976 101.132 58.5123C101.321 58.727 101.466 58.9768 101.558 59.2474C101.65 59.518 101.688 59.8041 101.67 60.0894L101.352 65.0224C101.315 65.5985 101.05 66.1363 100.617 66.5175C100.183 66.8987 99.6157 67.092 99.0396 67.0549Z" fill="#FF6600"/>
<path d="M88.711 68.6506C88.6599 68.6506 88.6088 68.649 88.5575 68.6457L56.8226 66.6016C56.5154 66.5818 56.2151 66.5017 55.9388 66.3659C55.6625 66.2301 55.4157 66.0411 55.2124 65.8099C55.0092 65.5787 54.8534 65.3097 54.7542 65.0182C54.6549 64.7268 54.614 64.4187 54.6338 64.1115L55.1764 55.6857C55.1962 55.3785 55.2764 55.0782 55.4122 54.8019C55.5481 54.5256 55.737 54.2788 55.9683 54.0756C56.1995 53.8724 56.4686 53.7166 56.76 53.6174C57.0514 53.5181 57.3596 53.4772 57.6668 53.4971L89.4015 55.541C90.0217 55.5816 90.6005 55.8666 91.0108 56.3335C91.4212 56.8003 91.6296 57.4108 91.5903 58.0311L91.0477 66.457C91.0178 66.9085 90.8583 67.3417 90.5882 67.7048C90.3181 68.0678 89.949 68.3452 89.5252 68.5036C89.2648 68.601 88.989 68.6508 88.711 68.6506Z" fill="#3C312B"/>
<path d="M52.0763 15.7208C54.3233 13.7883 57.409 15.5171 59.9858 15.2145C62.4511 14.9249 64.3978 12.7135 64.8951 10.3642C65.4753 7.62326 64.0526 4.87727 61.9557 3.16836C59.6591 1.29669 56.6132 0.759379 53.7269 1.10565C50.4187 1.50252 47.3933 3.04456 44.6786 4.90974C42.0582 6.65433 39.6485 8.69625 37.4976 10.9948C35.5715 13.122 33.9396 15.6576 33.4184 18.5201C32.9449 21.1215 33.3065 24.0043 34.8443 26.208C35.6598 27.3376 36.7526 28.2379 38.0173 28.8221C39.336 29.4696 40.7427 29.9326 42.0202 30.6647C43.9519 31.7717 45.8293 34.067 45.2242 36.4556C45.0945 36.9774 44.8385 37.4593 44.4787 37.8589C44.0465 38.3387 43.2668 37.7046 43.7002 37.2235C44.4614 36.3785 44.4314 35.2516 44.0257 34.2427C43.5434 33.1059 42.6892 32.1666 41.6032 31.5788C40.2659 30.8142 38.7894 30.3422 37.4188 29.6458C36.1069 29.0096 34.9681 28.0659 34.0994 26.8949C32.4589 24.6152 31.9682 21.6483 32.3403 18.9036C32.7429 15.9335 34.2689 13.2345 36.1819 10.9728C38.2638 8.5114 40.821 6.42789 43.4335 4.55614C46.2367 2.54773 49.3337 0.849764 52.7608 0.235636C55.7315 -0.296717 58.9515 0.0310331 61.5493 1.64994C63.9741 3.16108 65.8335 5.76055 66.0185 8.6652C66.0849 9.9868 65.7979 11.3022 65.1871 12.4761C64.5763 13.65 63.6638 14.6399 62.5434 15.344C61.3937 16.032 60.0571 16.3416 58.722 16.2293C57.2948 16.1379 55.8662 15.7009 54.4298 15.8222C53.7798 15.8617 53.1604 16.1119 52.6655 16.5351C52.1745 16.9573 51.5894 16.1396 52.0763 15.7208Z" fill="#3C312B"/>
<path d="M248.628 200H1.36637C1.26081 199.999 1.15968 199.957 1.08514 199.882C1.01061 199.808 0.96875 199.706 0.96875 199.601C0.96875 199.495 1.01061 199.394 1.08514 199.319C1.15968 199.245 1.26081 199.202 1.36637 199.202H248.628C248.734 199.202 248.836 199.244 248.91 199.319C248.985 199.394 249.027 199.495 249.027 199.601C249.027 199.707 248.985 199.808 248.91 199.883C248.836 199.958 248.734 200 248.628 200Z" fill="#3C312B"/>
</g>
<defs>
<clipPath id="clip0_1603_15012">
<rect width="248.06" height="200" fill="white" transform="translate(0.96875)"/>
</clipPath>
</defs>
</svg>
