<svg width="210" height="200" viewBox="0 0 210 200" fill="none" xmlns="http://www.w3.org/2000/svg">
<g clip-path="url(#clip0_1603_15041)">
<path d="M188.484 193.76C189.273 193.81 189.71 192.829 189.112 192.258L189.053 192.021C189.061 192.002 189.069 191.984 189.077 191.965C189.875 190.061 192.58 190.075 193.371 191.981C194.074 193.672 194.968 195.367 195.188 197.156C195.287 197.945 195.243 198.75 195.067 199.525C196.713 195.929 197.579 192.004 197.579 188.055C197.579 187.063 197.525 186.071 197.414 185.082C197.323 184.273 197.197 183.468 197.034 182.671C196.153 178.363 194.246 174.259 191.494 170.832C190.172 170.109 189.069 168.979 188.402 167.624C188.163 167.135 187.976 166.61 187.887 166.074C188.037 166.094 188.454 163.802 188.341 163.661C188.551 163.343 188.926 163.184 189.155 162.874C190.294 161.329 191.864 161.599 192.684 163.698C194.434 164.582 194.451 166.047 193.377 167.456C192.694 168.353 192.6 169.566 192 170.526C192.062 170.605 192.126 170.681 192.188 170.76C193.319 172.211 194.297 173.771 195.122 175.409C194.889 173.588 195.233 171.395 195.82 169.98C196.488 168.369 197.74 167.012 198.842 165.619C200.166 163.946 202.882 164.677 203.115 166.797C203.117 166.818 203.119 166.838 203.121 166.859C202.958 166.951 202.797 167.049 202.641 167.153C201.747 167.744 202.056 169.13 203.115 169.293L203.139 169.297C203.08 169.887 202.978 170.471 202.83 171.046C204.245 176.516 201.191 178.508 196.832 178.597C196.735 178.647 196.642 178.696 196.545 178.743C196.987 179.986 197.34 181.262 197.602 182.555C197.836 183.698 197.999 184.852 198.09 186.012C198.204 187.475 198.194 188.946 198.07 190.407L198.078 190.355C198.391 188.746 199.265 187.244 200.533 186.202C202.422 184.65 205.092 184.079 207.13 182.831C208.111 182.23 209.369 183.007 209.198 184.144L209.189 184.199C208.886 184.322 208.59 184.465 208.303 184.625C208.14 184.718 207.979 184.816 207.823 184.92C206.929 185.511 207.238 186.896 208.297 187.06L208.321 187.063C208.338 187.066 208.353 187.068 208.37 187.071C207.849 188.307 207.124 189.454 206.216 190.444C205.332 195.218 201.533 195.671 197.471 194.281H197.468C197.024 196.216 196.375 198.106 195.541 199.907H188.657C188.632 199.831 188.61 199.752 188.587 199.675C189.224 199.715 189.866 199.678 190.492 199.562C189.982 198.935 189.471 198.303 188.96 197.676C188.948 197.664 188.938 197.652 188.928 197.639C188.669 197.319 188.407 197 188.148 196.68L188.148 196.679C188.132 195.694 188.25 194.713 188.484 193.76Z" fill="#F2F2F2"/>
<path d="M61.8164 199.545C61.8164 199.798 62.0189 200 62.2711 200H208.705C208.957 200 209.159 199.798 209.159 199.545C209.159 199.293 208.957 199.091 208.705 199.091H62.2711C62.0189 199.091 61.8164 199.293 61.8164 199.545Z" fill="#CCCCCC"/>
<path d="M84.0372 199.807H16.6353C8.41677 199.807 1.73047 193.12 1.73047 184.902V40.0503C1.73047 31.8318 8.41677 25.1455 16.6353 25.1455H84.0372C92.2555 25.1455 98.9418 31.8318 98.9418 40.0503V184.902C98.9418 193.12 92.2555 199.807 84.0372 199.807Z" fill="#3C312B"/>
<path d="M98.943 78.4268C98.5953 78.4268 98.3125 78.7096 98.3125 79.0573V99.2348C98.3125 99.5825 98.5953 99.8653 98.943 99.8653C99.2908 99.8653 99.5736 99.5825 99.5736 99.2348V79.0573C99.5736 78.7095 99.2908 78.4268 98.943 78.4268Z" fill="#3C312B"/>
<path d="M97.5224 40.0508V184.9C97.5224 192.053 91.9547 197.905 84.9146 198.359H84.9115C84.8074 198.365 84.7034 198.371 84.5962 198.374C84.4102 198.384 84.2242 198.387 84.035 198.387C84.035 198.387 83.3414 198.337 82.074 198.242C80.794 198.147 78.9307 198.006 76.6072 197.82C75.9104 197.766 75.1758 197.706 74.4003 197.643C72.8554 197.517 71.1593 197.378 69.3401 197.221C68.615 197.161 67.8647 197.094 67.0986 197.028C63.1829 196.691 58.7974 196.297 54.1724 195.849C53.3905 195.777 52.6023 195.701 51.8078 195.622C51.5998 195.6 51.3885 195.581 51.1773 195.559C47.8795 195.234 3.14844 186.59 3.14844 184.9V40.0508C3.14844 32.601 9.18592 26.5635 16.6358 26.5635H24.6879C25.9742 26.5635 27.0083 27.566 27.1186 28.8492C27.1281 28.9343 27.1375 29.0194 27.1533 29.1046C27.3866 30.394 28.5689 31.2926 29.8804 31.2926H70.7904C72.1019 31.2926 73.2842 30.394 73.5175 29.1046C73.5333 29.0194 73.5427 28.9343 73.5522 28.8492C73.6625 27.566 74.6966 26.5635 75.9829 26.5635H84.035C91.4849 26.5635 97.5224 32.601 97.5224 40.0508Z" fill="white"/>
<path d="M1.4157 63.2939C1.06794 63.2939 0.785156 63.5767 0.785156 63.9245V68.9689C0.785156 69.3166 1.06795 69.5994 1.4157 69.5994C1.76345 69.5994 2.04624 69.3166 2.04624 68.9689V63.9245C2.04624 63.5767 1.76345 63.2939 1.4157 63.2939Z" fill="#3C312B"/>
<path d="M1.4157 78.4268C1.06794 78.4268 0.785156 78.7096 0.785156 79.0573V88.8308C0.785156 89.1785 1.06795 89.4613 1.4157 89.4613C1.76345 89.4613 2.04624 89.1785 2.04624 88.8308V79.0573C2.04624 78.7095 1.76345 78.4268 1.4157 78.4268Z" fill="#3C312B"/>
<path d="M1.4157 92.2988C1.06794 92.2988 0.785156 92.5816 0.785156 92.9294V102.703C0.785156 103.051 1.06795 103.333 1.4157 103.333C1.76345 103.333 2.04624 103.051 2.04624 102.703V92.9294C2.04624 92.5816 1.76345 92.2988 1.4157 92.2988Z" fill="#3C312B"/>
<path d="M24.4701 28.7715H12.4115C12.346 28.7715 12.293 28.8245 12.293 28.89V30.2293C12.293 30.2948 12.346 30.3478 12.4115 30.3478H24.4701C24.5355 30.3478 24.5886 30.2948 24.5886 30.2293V28.89C24.5886 28.8245 24.5355 28.7715 24.4701 28.7715Z" fill="#E6E6E6"/>
<path d="M77.9759 30.3474C78.6724 30.3474 79.237 29.7828 79.237 29.0863C79.237 28.3898 78.6724 27.8252 77.9759 27.8252C77.2795 27.8252 76.7148 28.3898 76.7148 29.0863C76.7148 29.7828 77.2795 30.3474 77.9759 30.3474Z" fill="#E6E6E6"/>
<path d="M81.4447 30.3474C82.1412 30.3474 82.7058 29.7828 82.7058 29.0863C82.7058 28.3898 82.1412 27.8252 81.4447 27.8252C80.7482 27.8252 80.1836 28.3898 80.1836 29.0863C80.1836 29.7828 80.7482 30.3474 81.4447 30.3474Z" fill="#E6E6E6"/>
<path d="M84.9134 30.3474C85.6099 30.3474 86.1745 29.7828 86.1745 29.0863C86.1745 28.3898 85.6099 27.8252 84.9134 27.8252C84.217 27.8252 83.6523 28.3898 83.6523 29.0863C83.6523 29.7828 84.217 30.3474 84.9134 30.3474Z" fill="#E6E6E6"/>
<path d="M76.9205 114.046H23.4344C22.5918 114.046 21.9062 113.36 21.9062 112.517C21.9062 111.675 22.5918 110.989 23.4344 110.989H76.9205C77.7631 110.989 78.4487 111.675 78.4487 112.517C78.4487 113.36 77.7631 114.046 76.9205 114.046Z" fill="#E6E6E6"/>
<path d="M50.3695 173.262C62.6073 173.262 72.528 163.342 72.528 151.104C72.528 138.866 62.6073 128.945 50.3695 128.945C38.1316 128.945 28.2109 138.866 28.2109 151.104C28.2109 163.342 38.1316 173.262 50.3695 173.262Z" fill="#FF6600"/>
<path d="M53.8926 143.87C52.0226 143.946 49.9085 144.075 48.5263 145.51C47.3254 146.756 47.0623 148.606 48.28 149.937C49.5009 151.272 51.3992 151.452 52.8066 152.493C54.4591 153.716 54.2171 156.134 52.6179 157.292C50.7321 158.658 48.2973 158.021 46.5733 156.722C46.1315 156.389 45.7027 157.135 46.1395 157.464C47.6841 158.628 49.6996 159.277 51.6094 158.72C53.333 158.217 54.669 156.811 54.8049 154.983C54.8698 154.111 54.6217 153.225 54.0792 152.536C53.5065 151.809 52.6816 151.362 51.8478 150.998C50.4123 150.371 47.9407 149.56 48.3581 147.52C48.8639 145.046 51.8743 144.812 53.8926 144.729C54.4438 144.707 54.4467 143.847 53.8926 143.87Z" fill="white"/>
<path d="M50.4223 142.699L50.3398 161.57C50.3374 162.123 51.197 162.124 51.1994 161.57L51.2819 142.699C51.2843 142.146 50.4247 142.145 50.4223 142.699Z" fill="white"/>
<path d="M167.77 0H58.5204C54.5127 0 51.2539 3.25882 51.2539 7.26645V82.1317C51.2539 86.1393 54.5127 89.3982 58.5204 89.3982H167.77C171.777 89.3982 175.036 86.1393 175.036 82.1317V7.26645C175.036 3.25882 171.777 0 167.77 0Z" fill="white"/>
<path d="M112.643 44.5143C119.395 44.5143 124.869 39.0408 124.869 32.2889C124.869 25.537 119.395 20.0635 112.643 20.0635C105.891 20.0635 100.418 25.537 100.418 32.2889C100.418 39.0408 105.891 44.5143 112.643 44.5143Z" fill="#FF6600"/>
<path d="M114.964 26.8333C113.45 26.8957 111.747 26.9916 110.602 28.1178C109.654 29.0507 109.322 30.5029 110.193 31.6013C111.111 32.7577 112.637 32.9772 113.834 33.7162C114.578 34.1755 115.072 34.8714 115.088 35.7656C115.103 36.6028 114.716 37.385 114.07 37.9097C112.486 39.1971 110.324 38.6642 108.825 37.5383C108.53 37.3167 108.244 37.814 108.536 38.0331C109.778 38.9656 111.376 39.5071 112.921 39.1059C114.344 38.7366 115.489 37.6178 115.643 36.1229C115.806 34.5472 114.771 33.4744 113.43 32.8589C112.203 32.2963 110.053 31.6969 110.255 29.9491C110.513 27.7269 113.234 27.4777 114.964 27.4064C115.331 27.3912 115.333 26.8181 114.964 26.8333Z" fill="white"/>
<path d="M112.334 25.7944L112.266 41.5186C112.264 41.8874 112.837 41.8878 112.839 41.5186L112.907 25.7944C112.909 25.4256 112.336 25.4251 112.334 25.7944Z" fill="white"/>
<path d="M167.77 0H58.5204C54.5127 0 51.2539 3.25882 51.2539 7.26645V82.1317C51.2539 86.1393 54.5127 89.3982 58.5204 89.3982H167.77C171.777 89.3982 175.036 86.1393 175.036 82.1317V7.26645C175.036 3.25882 171.777 0 167.77 0ZM174.272 82.1317C174.272 85.7191 171.357 88.6341 167.77 88.6341H58.5204C54.933 88.6341 52.018 85.7191 52.018 82.1317V7.26645C52.018 3.67908 54.933 0.764087 58.5204 0.764087H167.77C171.357 0.764087 174.272 3.67908 174.272 7.26645V82.1317Z" fill="#3C312B"/>
<path d="M100.55 7.39258H89.8296C89.2909 7.39258 88.8516 7.83194 88.8516 8.37061C88.8516 8.9131 89.2909 9.35247 89.8296 9.35247H100.55C101.088 9.35247 101.528 8.91311 101.528 8.37061C101.528 7.83194 101.088 7.39258 100.55 7.39258Z" fill="#E6E6E6"/>
<path d="M118.507 7.39258H107.787C107.248 7.39258 106.809 7.83194 106.809 8.37061C106.809 8.9131 107.248 9.35247 107.787 9.35247H118.507C119.045 9.35247 119.485 8.91311 119.485 8.37061C119.485 7.83194 119.045 7.39258 118.507 7.39258Z" fill="#E6E6E6"/>
<path d="M136.46 7.39258H125.74C125.201 7.39258 124.762 7.83194 124.762 8.37061C124.762 8.9131 125.201 9.35247 125.74 9.35247H136.46C136.999 9.35247 137.438 8.91311 137.438 8.37061C137.438 7.83194 136.999 7.39258 136.46 7.39258Z" fill="#E6E6E6"/>
<path d="M154.144 51.3906H72.1501C68.7385 51.3906 65.9648 54.1643 65.9648 57.5759V63.1614C65.9648 66.573 68.7385 69.3467 72.1501 69.3467H154.144C157.556 69.3467 160.33 66.573 160.33 63.1614V57.5759C160.33 54.1643 157.556 51.3906 154.144 51.3906Z" fill="#FF6600"/>
<path d="M28.7418 80.7994L25.5977 79.31C26.8873 81.1098 27.9985 83.9205 28.5934 86.1572C29.6007 84.0737 31.2244 81.5245 32.8317 80.0017L29.5086 80.8566C31.5563 70.8211 39.258 63.6166 48.0776 63.6166V62.8525C38.8653 62.8525 30.8326 70.3588 28.7418 80.7994Z" fill="#3C312B"/>
<path d="M43.2148 96.0896H23.3485C22.5059 96.0896 21.8203 95.404 21.8203 94.5614C21.8203 93.7188 22.5059 93.0332 23.3485 93.0332H43.2148C44.0574 93.0332 44.7429 93.7188 44.7429 94.5614C44.7429 95.404 44.0574 96.0896 43.2148 96.0896Z" fill="#E6E6E6"/>
<path d="M175.373 91.1123L175.173 106.715L171.291 120.623L168.188 119.465L169.565 106.717L169.384 89.4648L175.373 91.1123Z" fill="#A0616A"/>
<path d="M171.276 122.866C171.64 120.866 170.973 119.069 169.785 118.853C168.598 118.637 167.34 120.083 166.976 122.083C166.612 124.083 167.279 125.879 168.466 126.096C169.654 126.312 170.912 124.866 171.276 122.866Z" fill="#A0616A"/>
<path d="M170.66 72.5352C170.66 72.5352 177.311 72.6267 177.305 76.1594C177.302 78.154 176.874 96.2638 175.681 107.265C174.762 115.749 173.007 117.963 173.007 117.963L168.805 108.411L170.66 72.5352Z" fill="#E6E6E6"/>
<path d="M170.491 104.411H148.031C149.914 100.21 151.071 96.2097 149.262 93.0275L170.491 91.7969C169.43 96.0927 169.3 100.309 170.491 104.411Z" fill="#A0616A"/>
<path d="M167.72 67.1847L158.798 66.5693L155.106 71.1843L153.235 71.5246C150.429 72.0347 148.431 74.5385 148.556 77.3874L149.284 93.9347L170.61 95.4897L175.72 73.9416L169.566 71.492L167.72 67.1847Z" fill="#E6E6E6"/>
<path d="M113.31 72.1763C113.943 72.7458 114.395 73.411 114.633 74.0562L121.006 79.1002L118.517 82.0625L112.321 76.627C111.654 76.4576 110.945 76.0783 110.312 75.5089C108.866 74.2079 108.364 72.4073 109.192 71.487C110.02 70.5668 111.864 70.8754 113.31 72.1763Z" fill="#A0616A"/>
<path d="M158.368 76.4225L133.949 92.9113L116.445 80.7302L119.073 75.97L132.85 83.9763L145.555 74.2211C150.079 69.9715 155.749 70.7953 158.368 76.4225Z" fill="#E6E6E6"/>
<path d="M162.733 65.1868C166.388 65.1868 169.352 62.2232 169.352 58.5675C169.352 54.9118 166.388 51.9482 162.733 51.9482C159.077 51.9482 156.113 54.9118 156.113 58.5675C156.113 62.2232 159.077 65.1868 162.733 65.1868Z" fill="#A0616A"/>
<path d="M171.729 56.9414V58.2251L164.264 56.1239L158.667 57.2967C158.602 56.4448 158.35 55.6081 157.93 54.8669C158.222 56.0557 158.255 56.9753 157.945 57.4496L157.192 57.6062C157.07 57.2738 156.833 56.9835 156.524 56.8077C156.493 56.7886 156.455 56.7733 156.421 56.7848C156.367 56.8039 156.363 56.8727 156.363 56.9262C156.371 57.2089 156.379 57.4916 156.39 57.7743L154.228 58.2251V56.9414C152.153 52.2737 157.621 48.2345 162.98 48.1926C165.399 48.1737 167.584 49.1707 169.169 50.7523C170.751 52.3378 171.729 54.5231 171.729 56.9414Z" fill="#3C312B"/>
<path d="M175.926 71.9934L175.362 71.9467C175.402 71.7624 175.442 71.5803 175.479 71.396C175.791 69.8489 175.104 67.8794 175.053 66.393C174.788 67.9634 175.242 69.8956 174.772 71.3867C174.72 71.5523 172.68 72.6215 172.624 72.7849C170.366 71.9592 168.015 69.3213 165.353 70.862C163.779 71.7733 161.982 71.3739 160.194 70.9566C159.752 70.8534 159.69 68.6682 159.252 68.5824C158.468 68.4286 157.316 70.415 156.578 70.4926L159.634 58.6492C159.634 52.2065 159.038 45.4468 167.199 47.725C169.252 48.2979 171.283 48.7471 172.798 50.4412C174.313 52.1376 175.392 54.5085 175.774 57.2083C176.004 58.8371 177.442 64.3675 175.926 71.9934Z" fill="#3C312B"/>
<path d="M170.655 191.09L167.011 191.176L164.98 174.808L170.357 174.681L170.655 191.09Z" fill="#A0616A"/>
<path d="M158.156 198.692C158.156 199.307 158.593 199.806 159.132 199.806H166.364C166.364 199.806 167.075 196.945 169.977 195.714L170.177 199.806H173.908L173.456 193.227C173.456 193.227 174.454 189.707 172.381 187.907C170.309 186.108 171.987 186.358 171.987 186.358L171.172 182.286L165.535 182.949L165.493 189.341L162.757 195.687L158.745 197.669C158.387 197.845 158.156 198.247 158.156 198.692Z" fill="#3C312B"/>
<path d="M159.573 188.423L156.071 189.431L149.953 174.113L155.122 172.626L159.573 188.423Z" fill="#A0616A"/>
<path d="M149.413 198.948C149.569 199.543 150.118 199.915 150.639 199.778L157.634 197.943C157.634 197.943 157.597 194.995 160.091 193.068L161.323 196.975L164.931 196.029L162.825 189.779C162.825 189.779 162.897 186.121 160.435 184.907C157.974 183.692 159.661 183.508 159.661 183.508L157.839 179.776L152.555 181.848L154.137 188.042L153.101 194.873L149.722 197.809C149.421 198.07 149.3 198.518 149.413 198.948Z" fill="#3C312B"/>
<path d="M168.424 103.444L170.716 104.208C174.3 110.828 175.819 119.618 175.618 130.217L171.546 177.824H164.885L160.01 124.788L151.414 144.695L157.703 177.824L151.414 178.465L138.746 144.016L147.568 103.977L168.424 103.444Z" fill="#3C312B"/>
</g>
<defs>
<clipPath id="clip0_1603_15041">
<rect width="208.429" height="200" fill="white" transform="translate(0.785156)"/>
</clipPath>
</defs>
</svg>
