<svg width="138" height="100" viewBox="0 0 138 100" fill="none" xmlns="http://www.w3.org/2000/svg">
<g clip-path="url(#clip0_1603_14902)">
<path d="M40.3594 30.5568H60.7274C60.7274 32.1225 60.766 33.6166 60.7274 35.108C60.6943 36.0958 61.0252 36.4838 62.0678 36.4838C66.5192 36.4435 70.9716 36.4435 75.4249 36.4838C76.437 36.4838 76.8176 36.1454 76.8039 35.141C76.7708 30.7026 76.757 26.2642 76.8039 21.8258C76.8039 20.7692 76.3874 20.4996 75.4111 20.5078C70.9982 20.5408 66.5918 20.5408 62.1919 20.5078C61.1328 20.5078 60.6832 20.816 60.7329 21.9167C60.7991 23.4108 60.7494 24.9104 60.7494 26.4596H40.4504C41.0792 12.6189 52.9304 -0.151473 68.3285 -0.000133071C85.7178 0.167717 98.1702 13.4334 97.238 30.4742C96.4106 45.6082 83.288 58.2355 66.5468 56.9918C50.3931 55.7948 40.6379 42.188 40.3594 30.5568Z" fill="black"/>
<path d="M60.9608 84.5164C64.6344 86.0078 65.4867 88.8612 65.4012 92.1769C65.3184 95.2753 63.8374 97.5151 60.8642 98.5277C59.4452 99.0327 57.957 99.3176 56.4514 99.3725C51.4042 99.466 46.357 99.3945 41.3099 99.3725C39.28 99.3725 38.8828 98.979 38.8828 96.984C38.8828 89.2079 38.8828 81.4318 38.8828 73.6557C38.8828 71.8809 39.4344 71.1792 41.2189 71.1792C46.4012 71.1792 51.5863 71.1792 56.7631 71.3691C58.2718 71.471 59.7445 71.8753 61.0932 72.5578C63.6995 73.8125 64.1022 76.311 64.0553 78.8618C64.0111 81.1594 63.1727 83.1296 60.9608 84.5164ZM44.8981 94.9148C47.5595 94.9148 50.028 94.9368 52.4936 94.9148C53.9091 94.9419 55.3247 94.8692 56.73 94.6974C58.713 94.3892 59.5321 93.2308 59.5321 91.1203C59.5321 88.7291 58.7709 87.6175 56.7465 87.2433C55.9346 87.1289 55.1138 87.0902 54.2946 87.1277C51.9172 87.1277 49.537 87.1277 47.1651 87.2377C46.0619 87.29 45.0001 87.7688 44.9256 89.0401C44.8153 90.9359 44.8981 92.8483 44.8981 94.9148ZM44.8374 82.8984C48.1746 82.8984 51.4235 82.8984 54.6697 82.8984C56.9975 82.8847 58.1145 81.696 58.1338 79.2773C58.1531 76.8586 57.0306 75.7139 54.6477 75.7001C52.2647 75.6864 49.8846 75.7001 47.5044 75.7139H44.8374V82.8984Z" fill="black"/>
<path d="M137.956 99.3697C135.777 99.3697 133.904 99.4303 132.042 99.3229C131.648 99.2982 131.179 98.7258 130.939 98.2966C129.284 95.4019 127.663 92.4888 126.074 89.5574C125.702 88.8667 125.263 88.5943 124.469 88.6246C122.911 88.6879 121.347 88.6026 119.78 88.6411C117.513 88.6989 116.746 89.5161 116.763 91.7504C116.763 94.2269 116.763 96.6814 116.763 99.3697C114.954 99.3697 113.23 99.4248 111.523 99.3147C111.263 99.2982 110.852 98.5332 110.847 98.1095C110.789 94.769 110.814 91.4285 110.814 88.088C110.814 83.3185 110.818 78.5591 110.828 73.8098C110.828 71.8011 111.495 71.1902 113.622 71.1957C117.339 71.1957 121.068 71.2975 124.775 71.1957C127.514 71.1132 130.156 71.2755 132.724 72.3404C134.93 73.2594 136.488 74.8004 136.701 77.1613C136.915 79.2731 136.822 81.4047 136.425 83.49C135.906 86.0243 133.86 87.3698 131.364 88.1155L137.956 99.3697ZM116.826 84.2357C120.108 84.2357 123.219 84.1752 126.328 84.2522C130.117 84.3458 131.16 82.6012 130.898 79.1342C130.724 76.8668 129.419 75.7222 127.108 75.7111C124.626 75.7111 122.163 75.7111 119.689 75.7111H116.826V84.2357Z" fill="black"/>
<path d="M6.01512 71.2043C6.04546 71.7298 6.08959 72.1316 6.08959 72.5306C6.08959 77.7917 6.08959 83.0501 6.05925 88.3112C6.03994 92.4524 8.60215 95.1435 12.7502 95.2068C14.0299 95.2675 15.3124 95.1752 16.5701 94.9316C19.899 94.1667 21.5731 91.9048 21.5621 88.5093C21.5621 83.2482 21.5621 77.9871 21.4987 72.7259C21.4793 71.5262 21.7993 71.0942 23.0349 71.185C24.4883 71.2896 25.9556 71.2098 27.5111 71.2098C27.5442 71.7188 27.5911 72.1178 27.5911 72.514C27.5911 77.7752 27.6104 83.0363 27.5663 88.2974C27.5501 89.438 27.4226 90.5743 27.1857 91.6902C26.4548 95.204 24.3118 97.5429 20.947 98.7372C16.3832 100.398 11.3819 100.419 6.80392 98.7977C2.27524 97.2485 0.184664 93.8447 0.0715853 89.3018C-0.0828639 83.6334 0.0274572 77.9595 0.0136671 72.2857C0.0136671 71.6803 0.0550374 71.185 0.841073 71.185C2.55105 71.2153 4.24171 71.2043 6.01512 71.2043Z" fill="black"/>
<path d="M82.231 94.7555H100.826C100.202 96.3102 99.7361 97.6282 99.1266 98.883C98.9887 99.1582 98.3709 99.3618 97.971 99.3645C91.4069 99.3976 84.8428 99.4058 78.2787 99.3893C76.8253 99.3893 76.3481 98.839 76.3481 97.3503C76.3371 89.4788 76.3371 81.6082 76.3481 73.7385C76.3481 71.8316 76.9521 71.2428 78.9296 71.2373C81.3622 71.2373 83.7948 71.2373 86.2274 71.2373H100.757C100.18 72.7039 99.761 73.9889 99.1487 75.1969C98.9777 75.5326 98.2468 75.7472 97.7697 75.7472C93.081 75.7968 88.3924 75.838 83.7258 75.7748C82.4737 75.7555 82.1482 76.1462 82.2144 77.3322C82.3137 79.1042 82.2393 80.8873 82.2393 82.8547H96.0597C95.4667 84.3076 95.0447 85.5568 94.4325 86.707C94.2504 87.0455 93.5361 87.2573 93.0535 87.2573C90.6236 87.3096 88.1883 87.2573 85.7557 87.2738C82.9591 87.2738 82.2696 87.97 82.2365 90.7519C82.2172 92.0232 82.231 93.2944 82.231 94.7555Z" fill="black"/>
</g>
<defs>
<clipPath id="clip0_1603_14902">
<rect width="137.956" height="100" fill="white"/>
</clipPath>
</defs>
</svg>
